# xmcd CD database file
# Copyright (C) 1997 Ti Kan
#
# Track frame offsets:
#  183
#  12370
#  25495
#  36995
#  53883
#  66408
#  77983
#  90883
#  104120
#  116758
#  128333
#  141433
#  155558
#  168370
#  181258
#  196670
#
# Disc length: 2786 seconds
#
# Revision: 1
# Processed by: cddbd v1.4b41PL1 Copyright (c) Steve Scherf et al.
# Submitted via: CDWizzard Release:4.20
#
DISCID=da0ae010
DTITLE=Great Blues Performers - Blue Mood
DYEAR=1900
DGENRE=
TTITLE0=I'm In The Mood
TTITLE1=Mannish Boy
TTITLE2=Born Blind
TTITLE3=I Had A Talk With My Man
TTITLE4=I Need You
TTITLE5=Can't Hold Back The Tears
TTITLE6=Evil
TTITLE7=She Moves Me
TTITLE8=Hobo Blues
TTITLE9=Anything To Say You're Mine
TTITLE10=Dust My Broom
TTITLE11=Blues With A Feeling
TTITLE12=Lonely Hours
TTITLE13=Like A Wolf
TTITLE14=Blind man
TTITLE15=Last Night
EXTD=
EXTT0=
EXTT1=
EXTT2=
EXTT3=
EXTT4=
EXTT5=
EXTT6=
EXTT7=
EXTT8=
EXTT9=
EXTT10=
EXTT11=
EXTT12=
EXTT13=
EXTT14=
EXTT15=
PLAYORDER=
